<svg width="24" height="24" viewBox="0 0 24 24" fill="none" xmlns="http://www.w3.org/2000/svg">
<path d="M8.875 12.002C8.875 12.209 9.043 12.377 9.25 12.375C9.457 12.375 9.625 12.207 9.625 12C9.625 11.793 9.457 11.625 9.25 11.625C9.043 11.626 8.875 11.794 8.875 12.002" stroke="#BEBEBE" stroke-width="1.5" stroke-linecap="round" stroke-linejoin="round"/>
<path d="M14.375 12.002C14.375 12.209 14.543 12.377 14.75 12.375C14.957 12.375 15.125 12.207 15.125 12C15.125 11.793 14.957 11.625 14.75 11.625C14.543 11.626 14.375 11.794 14.375 12.002" stroke="#BEBEBE" stroke-width="1.5" stroke-linecap="round" stroke-linejoin="round"/>
<path d="M8.875 6.00199C8.875 6.20899 9.043 6.37699 9.25 6.37499C9.457 6.37499 9.625 6.20699 9.625 5.99999C9.625 5.79299 9.457 5.62499 9.25 5.62499C9.043 5.62599 8.875 5.79399 8.875 6.00199" stroke="#BEBEBE" stroke-width="1.5" stroke-linecap="round" stroke-linejoin="round"/>
<path d="M14.375 6.00199C14.375 6.20899 14.543 6.37699 14.75 6.37499C14.957 6.37499 15.125 6.20699 15.125 5.99999C15.125 5.79299 14.957 5.62499 14.75 5.62499C14.543 5.62599 14.375 5.79399 14.375 6.00199" stroke="#BEBEBE" stroke-width="1.5" stroke-linecap="round" stroke-linejoin="round"/>
<path d="M8.875 18.002C8.875 18.209 9.043 18.377 9.25 18.375C9.457 18.375 9.625 18.207 9.625 18C9.625 17.793 9.457 17.625 9.25 17.625C9.043 17.626 8.875 17.794 8.875 18.002" stroke="#BEBEBE" stroke-width="1.5" stroke-linecap="round" stroke-linejoin="round"/>
<path d="M14.375 18.002C14.375 18.209 14.543 18.377 14.75 18.375C14.957 18.375 15.125 18.207 15.125 18C15.125 17.793 14.957 17.625 14.75 17.625C14.543 17.626 14.375 17.794 14.375 18.002" stroke="#BEBEBE" stroke-width="1.5" stroke-linecap="round" stroke-linejoin="round"/>
</svg>
